<?xml version="1.0" encoding="utf-8"?>
<!-- Generator: Adobe Illustrator 16.0.0, SVG Export Plug-In . SVG Version: 6.00 Build 0)  -->
<!DOCTYPE svg PUBLIC "-//W3C//DTD SVG 1.1//EN" "http://www.w3.org/Graphics/SVG/1.1/DTD/svg11.dtd">
<svg version="1.1" id="Layer_1" xmlns="http://www.w3.org/2000/svg" xmlns:xlink="http://www.w3.org/1999/xlink" x="0px" y="0px"
	 width="107.966px" height="107.966px" viewBox="0 0 107.966 107.966" enable-background="new 0 0 107.966 107.966"
	 xml:space="preserve">
<g>
	<path d="M53.983,7.182c3.427,0,6.037,1.075,7.979,3.286c2.482,2.825,3.933,7.66,4.197,13.982l0.329,7.875l6.984-3.653
		c4.536-2.373,8.534-3.576,11.884-3.576c4.032,0,7.028,1.794,9.16,5.485c1.713,2.967,2.086,5.765,1.143,8.553
		c-1.206,3.562-4.668,7.236-10.01,10.626l-6.655,4.222l6.655,4.222c5.344,3.39,8.805,7.065,10.011,10.627
		c0.944,2.788,0.57,5.585-1.143,8.552c-2.131,3.691-5.127,5.485-9.16,5.485c-3.35,0-7.348-1.203-11.884-3.576l-6.984-3.653
		l-0.329,7.875c-0.264,6.322-1.715,11.157-4.197,13.982c-1.942,2.211-4.552,3.286-7.979,3.286c-3.426,0-6.036-1.075-7.978-3.286
		c-2.482-2.825-3.934-7.661-4.197-13.982l-0.329-7.875l-6.984,3.653c-4.536,2.372-8.535,3.575-11.884,3.575
		c-4.032,0-7.028-1.794-9.16-5.486c-1.713-2.967-2.087-5.765-1.143-8.552c1.206-3.562,4.667-7.237,10.01-10.626l6.656-4.222
		l-6.656-4.222c-5.343-3.389-8.804-7.063-10.01-10.625c-0.943-2.788-0.569-5.585,1.145-8.553c2.13-3.691,5.126-5.485,9.158-5.485
		c3.35,0,7.348,1.203,11.883,3.575l6.984,3.653l0.329-7.875c0.264-6.322,1.715-11.157,4.197-13.982
		C47.947,8.256,50.557,7.182,53.983,7.182 M53.983,2.182c-9.07,0-16.499,5.943-17.171,22.06c-5.523-2.889-10.236-4.145-14.201-4.145
		c-6.295,0-10.707,3.166-13.489,7.986c-4.536,7.855-3.103,17.259,10.518,25.9C6.019,62.624,4.587,72.029,9.122,79.883
		c2.783,4.819,7.195,7.986,13.49,7.986c3.965,0,8.676-1.255,14.201-4.145c0.672,16.117,8.101,22.06,17.171,22.06
		c9.071,0,16.499-5.943,17.171-22.06c5.523,2.889,10.236,4.145,14.201,4.145c6.296,0,10.707-3.166,13.49-7.985
		c4.535-7.855,3.102-17.259-10.52-25.901c13.621-8.641,15.054-18.045,10.52-25.901c-2.783-4.819-7.195-7.985-13.49-7.985
		c-3.965,0-8.677,1.255-14.201,4.145C70.482,8.125,63.054,2.182,53.983,2.182L53.983,2.182z"/>
</g>
</svg>
