<?xml version="1.0" encoding="utf-8"?>
<!-- Generator: Adobe Illustrator 16.0.0, SVG Export Plug-In . SVG Version: 6.00 Build 0)  -->
<!DOCTYPE svg PUBLIC "-//W3C//DTD SVG 1.1//EN" "http://www.w3.org/Graphics/SVG/1.1/DTD/svg11.dtd">
<svg version="1.1" id="Layer_1" xmlns="http://www.w3.org/2000/svg" xmlns:xlink="http://www.w3.org/1999/xlink" x="0px" y="0px"
	 width="107.965px" height="107.965px" viewBox="0 0 107.965 107.965" enable-background="new 0 0 107.965 107.965"
	 xml:space="preserve">
<path fill="#FFFFFF" d="M88.327,53.983c13.62-8.641,15.053-18.045,10.52-25.901c-4.536-7.855-13.396-11.317-27.691-3.84
	c-0.672-16.117-8.1-22.06-17.171-22.06c-9.07,0-16.499,5.943-17.171,22.06c-14.294-7.476-23.155-4.015-27.689,3.841
	c-4.536,7.855-3.103,17.259,10.518,25.9c-13.623,8.641-15.055,18.046-10.52,25.9c4.536,7.854,13.396,11.316,27.69,3.841
	c0.672,16.116,8.101,22.06,17.171,22.06c9.071,0,16.499-5.943,17.171-22.06c14.294,7.478,23.156,4.014,27.691-3.841
	C103.379,72.029,101.947,62.625,88.327,53.983z"/>
</svg>
