<?xml version="1.0" encoding="utf-8"?>
<!-- Generator: Adobe Illustrator 16.0.0, SVG Export Plug-In . SVG Version: 6.00 Build 0)  -->
<!DOCTYPE svg PUBLIC "-//W3C//DTD SVG 1.1//EN" "http://www.w3.org/Graphics/SVG/1.1/DTD/svg11.dtd">
<svg version="1.1" id="Layer_1" xmlns="http://www.w3.org/2000/svg" xmlns:xlink="http://www.w3.org/1999/xlink" x="0px" y="0px"
	 width="107.965px" height="107.965px" viewBox="0 0 107.965 107.965" enable-background="new 0 0 107.965 107.965"
	 xml:space="preserve">
<g>
	<path fill="#FFFFFF" d="M53.983,7.182c3.428,0,6.037,1.075,7.979,3.286c2.482,2.825,3.934,7.66,4.197,13.982l0.329,7.875
		l6.984-3.653c4.536-2.373,8.534-3.576,11.884-3.576c4.032,0,7.027,1.794,9.16,5.485c1.713,2.967,2.086,5.765,1.143,8.553
		c-1.205,3.562-4.668,7.236-10.01,10.626l-6.654,4.222l6.654,4.222c5.344,3.391,8.805,7.065,10.012,10.627
		c0.943,2.789,0.569,5.586-1.144,8.553c-2.131,3.691-5.127,5.484-9.16,5.484c-3.351,0-7.349-1.203-11.884-3.576l-6.984-3.652
		l-0.328,7.875c-0.265,6.322-1.716,11.156-4.197,13.982c-1.942,2.211-4.553,3.285-7.979,3.285c-3.426,0-6.036-1.074-7.978-3.285
		c-2.482-2.826-3.934-7.662-4.197-13.982l-0.329-7.875l-6.984,3.652c-4.536,2.373-8.535,3.576-11.884,3.576
		c-4.032,0-7.028-1.795-9.16-5.486c-1.713-2.967-2.087-5.766-1.143-8.553c1.206-3.562,4.667-7.236,10.01-10.625l6.656-4.223
		l-6.656-4.222c-5.343-3.389-8.804-7.063-10.01-10.625c-0.943-2.788-0.569-5.585,1.145-8.553c2.13-3.691,5.126-5.485,9.158-5.485
		c3.35,0,7.348,1.203,11.883,3.575l6.984,3.653l0.329-7.875c0.264-6.322,1.715-11.157,4.197-13.982
		C47.947,8.256,50.557,7.182,53.983,7.182 M53.983,2.182c-9.07,0-16.499,5.943-17.171,22.06c-5.523-2.889-10.236-4.145-14.201-4.145
		c-6.295,0-10.707,3.166-13.489,7.986c-4.536,7.855-3.103,17.259,10.518,25.9C6.019,62.624,4.587,72.029,9.122,79.883
		c2.783,4.818,7.195,7.986,13.49,7.986c3.965,0,8.676-1.256,14.201-4.146c0.672,16.116,8.101,22.06,17.171,22.06
		c9.071,0,16.499-5.943,17.171-22.06c5.523,2.89,10.236,4.146,14.201,4.146c6.296,0,10.707-3.166,13.49-7.986
		c4.535-7.854,3.102-17.258-10.52-25.9c13.62-8.641,15.053-18.045,10.52-25.901c-2.783-4.819-7.195-7.985-13.49-7.985
		c-3.965,0-8.677,1.255-14.201,4.145C70.482,8.125,63.054,2.182,53.983,2.182L53.983,2.182z"/>
</g>
</svg>
