<?xml version="1.0" encoding="utf-8"?>
<!-- Generator: Adobe Illustrator 16.0.0, SVG Export Plug-In . SVG Version: 6.00 Build 0)  -->
<!DOCTYPE svg PUBLIC "-//W3C//DTD SVG 1.1//EN" "http://www.w3.org/Graphics/SVG/1.1/DTD/svg11.dtd">
<svg version="1.1" id="Layer_1" xmlns="http://www.w3.org/2000/svg" xmlns:xlink="http://www.w3.org/1999/xlink" x="0px" y="0px"
	 width="107.966px" height="107.966px" viewBox="0 0 107.966 107.966" enable-background="new 0 0 107.966 107.966"
	 xml:space="preserve">
<g>
	<path fill="#FFFFFF" d="M53.983,53.982c0,0-24.125,1.332-38.184-12.728C1.74,27.196,3.071,3.071,3.071,3.071
		S27.195,1.74,41.254,15.799C55.314,29.858,53.983,53.982,53.983,53.982z"/>
	<path fill="#FFFFFF" d="M104.895,104.894c0,0-24.125,1.332-38.185-12.728C52.651,78.108,53.983,53.982,53.983,53.982
		s24.125-1.331,38.184,12.729C106.225,80.77,104.895,104.894,104.895,104.894z"/>
	<path fill="#FFFFFF" d="M53.983,53.983c0,0-1.332-24.125,12.728-38.184C80.77,1.74,104.895,3.072,104.895,3.072
		s1.33,24.125-12.729,38.183C78.106,55.314,53.983,53.983,53.983,53.983z"/>
	<path fill="#FFFFFF" d="M3.071,104.895c0,0-1.332-24.125,12.728-38.184c14.059-14.059,38.184-12.728,38.184-12.728
		s1.331,24.125-12.729,38.183C27.195,106.226,3.071,104.895,3.071,104.895z"/>
</g>
</svg>
