<?xml version="1.0" encoding="utf-8"?>
<!-- Generator: Adobe Illustrator 16.0.0, SVG Export Plug-In . SVG Version: 6.00 Build 0)  -->
<!DOCTYPE svg PUBLIC "-//W3C//DTD SVG 1.1//EN" "http://www.w3.org/Graphics/SVG/1.1/DTD/svg11.dtd">
<svg version="1.1" id="Layer_1" xmlns="http://www.w3.org/2000/svg" xmlns:xlink="http://www.w3.org/1999/xlink" x="0px" y="0px"
	 width="378.805px" height="378.516px" viewBox="0 0 378.805 378.516" enable-background="new 0 0 378.805 378.516"
	 xml:space="preserve">
<g>
	<g>
		<g>
			<path fill="#FFFFFF" d="M36.649,0.178h-0.321h-6.098l-0.147,0.025c-16.607,0-30.07,13.463-30.07,30.071l0.002,0.104L0,30.531
				V40.3l0.015,0.714l0.058,307.224v0.17c0,16.602,13.462,30.067,30.063,30.067l0.172,0.012h318.233l0.176-0.012
				c16.604,0,30.066-13.466,30.066-30.067v-0.17l0.021-317.676v-0.503C378.805,13.462,365.338,0,348.737,0l-0.107,0.004
				L36.649,0.178z"/>
		</g>
		<g>
			<g>
				<path fill="#2F66B1" d="M117.216,235.021c0.319,0.299,0.111,0.582,0.111,0.582s-74.665,0.759-115.638,28.834
					c-1.683,1.158-1.518,0.917-1.518,0.917V126.749c0,0,27.166,58.221,104.537,46.377c0.917-0.133,0.934,0.42,0.934,0.42
					S85.61,205.007,117.216,235.021z"/>
			</g>
			<g>
				<path fill="#F0B71C" d="M51.892,265.259c-24.179,9.281-41.149,31.037-41.149,56.398c0,24.338,15.663,46.045,38.314,55.908
					c0,0,2.067,0.835,2.357,0.847c0.29,0.004,122.012,0,122.012,0s0.93-0.594,1.417-1.014
					c58.067-51.392,12.948-91.053-36.805-124.609c-0.897-0.606-2.147-0.74-2.147-0.74l-0.153-0.037
					c-10.333-1.22-25.75-0.597-42.717,2.092c-16.519,2.636-31.041,6.671-40.511,10.909L51.892,265.259z"/>
			</g>
			<g>
				<path fill="#EB1D25" d="M378.805,30.088c0-16.597-13.467-30.055-30.068-30.055l-0.107,0.004H184.146l-0.846-0.071
					c22.4,18.686,36.762,43.979,36.762,73.211c0,20.84-7.902,38.586-17.189,52.518l0.133-0.058
					c11.902-8.444,53.971-23.022,94.586-16.567c35.924,5.725,63.809,21.984,79.984,38.146l1.23,1.207V30.594V30.088z"/>
			</g>
			<g>
				<path fill="#0F8341" d="M378.784,348.271V148.854l0.021-0.432l-1.23-1.207c-16.176-16.161-44.061-32.421-79.984-38.146
					c-40.615-6.455-82.684,8.123-94.586,16.567l-0.484,0.414l-1.781,1.864c0,0-6.672,7.182-13.961,14.16
					c-7.28,6.979-17.879,15.607-17.879,15.607c-9.136,6.866-14.695,15.954-14.695,25.921c0,10.001,6.394,19.591,15.584,26.461
					c0,0,15.26,11.157,25.493,19.726c10.229,8.573,22.316,20.316,22.316,20.316c13.854,13.026,22.803,33.658,22.803,56.876
					c0,19.996-6.629,38.059-17.314,51.01l-16.373,20.523h141.83l0.176-0.013c16.604,0,30.066-13.463,30.066-30.067V348.271z"/>
			</g>
			<g>
				<path fill="#2F66B1" d="M69.221,0.308C39.478,15.804,34.935,53.995,44.699,89.409c12.905,46.805,46.979,79.479,81.571,68.689
					c48.254-15.053,47.739-53.978,34.829-100.783c-6.704-24.338-24.214-47.216-41.516-57.024l-0.128-0.088H69.452L69.221,0.308z"/>
			</g>
			<g>
				<path fill="#2F66B1" d="M0,30.562v9.775l0.015,0.706C9.01,22.951,22.093,8.65,36.649,0.203h-0.321h-6.098l-0.147,0.033
					c-16.607,0-30.07,13.463-30.07,30.067l0.002,0.107L0,30.562z"/>
			</g>
		</g>
	</g>
</g>
</svg>
