<?xml version="1.0" encoding="utf-8"?>
<!-- Generator: Adobe Illustrator 16.0.0, SVG Export Plug-In . SVG Version: 6.00 Build 0)  -->
<!DOCTYPE svg PUBLIC "-//W3C//DTD SVG 1.1//EN" "http://www.w3.org/Graphics/SVG/1.1/DTD/svg11.dtd">
<svg version="1.1" id="Layer_1" xmlns="http://www.w3.org/2000/svg" xmlns:xlink="http://www.w3.org/1999/xlink" x="0px" y="0px"
	 width="166.593px" height="64.36px" viewBox="0 0 166.593 64.36" enable-background="new 0 0 166.593 64.36" xml:space="preserve">
<path fill-rule="evenodd" clip-rule="evenodd" fill="#EF3E35" d="M163.521,42.606c-0.636,0.348-1.274,0.754-1.911,1.043
	c-1.913,0.869-3.883,1.102-5.62,1.102c-1.854,0-4.751-0.117-7.705-2.26c-4.113-2.896-5.909-7.879-5.909-12.225
	c0-8.979,7.3-13.383,13.268-13.383c2.084,0,4.229,0.521,5.967,1.623c2.896,1.911,3.649,4.402,4.054,5.735l-13.613,5.503
	l-4.461,0.349c1.448,7.356,6.431,11.644,11.935,11.644c2.954,0,5.099-1.041,7.068-2.027L163.521,42.606L163.521,42.606z
	 M158.076,25.343c1.1-0.406,1.68-0.753,1.68-1.565c0-2.317-2.606-4.982-5.735-4.982c-2.318,0-6.662,1.796-6.662,8.053
	c0,0.985,0.114,2.027,0.173,3.07L158.076,25.343L158.076,25.343z"/>
<path fill-rule="evenodd" clip-rule="evenodd" fill="#2FB457" d="M140.984,43.88h-10.255c1.333-1.736,1.565-1.91,1.565-3.068v-9.444
	c0-4.519,0.058-10.95,0.231-16.975c0.058-2.955,0.29-6.663,0.348-9.328h-4.519l4.346-2.086h8.283
	c-1.795,1.043-2.375,1.391-2.605,3.419c-0.464,4.46-0.522,11.528-0.522,19.755v13.383c0,2.26,0.405,2.607,2.318,2.781
	c0.984,0.115,1.97,0.174,2.954,0.289L140.984,43.88L140.984,43.88z"/>
<path fill-rule="evenodd" clip-rule="evenodd" fill="#0075BF" d="M121.983,19.723c1.331,1.101,4.112,3.418,4.112,7.821
	c0,4.287-2.434,6.314-4.866,8.227c-0.752,0.752-1.622,1.564-1.622,2.838c0,1.275,0.87,1.971,1.506,2.492l2.086,1.621
	c2.55,2.145,4.866,4.115,4.866,8.111c0,5.447-5.272,10.951-15.237,10.951c-8.4,0-12.456-3.998-12.456-8.285
	c0-2.088,1.043-5.041,4.463-7.07c3.591-2.201,8.458-2.49,11.063-2.664c-0.811-1.043-1.737-2.143-1.737-3.938
	c0-0.986,0.29-1.566,0.58-2.26c-0.639,0.057-1.274,0.115-1.854,0.115c-6.141,0-9.617-4.578-9.617-9.096
	c0-2.665,1.217-5.62,3.708-7.763c3.303-2.723,7.242-3.186,10.37-3.186h11.934l-3.707,2.085H121.983L121.983,19.723z M117.869,45.444
	c-0.464-0.057-0.754-0.057-1.332-0.057c-0.521,0-3.65,0.115-6.084,0.928c-1.274,0.463-4.982,1.852-4.982,5.967
	c0,4.111,3.998,7.066,10.197,7.066c5.562,0,8.517-2.664,8.517-6.256C124.185,50.138,122.273,48.573,117.869,45.444L117.869,45.444z
	 M119.551,34.438c1.331-1.334,1.447-3.187,1.447-4.23c0-4.171-2.491-10.66-7.3-10.66c-1.507,0-3.128,0.753-4.056,1.912
	c-0.985,1.217-1.275,2.781-1.275,4.287c0,3.881,2.26,10.312,7.242,10.312C117.058,36.06,118.622,35.364,119.551,34.438
	L119.551,34.438z"/>
<path fill-rule="evenodd" clip-rule="evenodd" fill="#FFDF1C" d="M86.062,44.634c-9.211,0-14.135-7.184-14.135-13.671
	c0-7.589,6.199-14.079,15.004-14.079c8.517,0,13.848,6.663,13.848,13.673C100.779,37.394,95.507,44.634,86.062,44.634L86.062,44.634
	z M93.305,39.942c1.391-1.855,1.738-4.172,1.738-6.432c0-5.098-2.435-14.831-9.618-14.831c-1.911,0-3.823,0.753-5.213,1.97
	c-2.258,2.028-2.665,4.577-2.665,7.068c0,5.736,2.839,15.178,9.848,15.178C89.654,42.896,91.973,41.796,93.305,39.942L93.305,39.942
	z"/>
<path fill-rule="evenodd" clip-rule="evenodd" fill="#EF3E35" d="M55.242,44.634c-9.212,0-14.137-7.184-14.137-13.671
	c0-7.589,6.199-14.079,15.006-14.079c8.516,0,13.845,6.663,13.845,13.673C69.957,37.394,64.686,44.634,55.242,44.634L55.242,44.634z
	 M62.483,39.942c1.391-1.855,1.738-4.172,1.738-6.432c0-5.098-2.433-14.831-9.616-14.831c-1.912,0-3.824,0.753-5.215,1.97
	c-2.259,2.028-2.665,4.577-2.665,7.068c0,5.736,2.839,15.178,9.85,15.178C58.834,42.896,61.151,41.796,62.483,39.942L62.483,39.942z
	"/>
<path fill-rule="evenodd" clip-rule="evenodd" fill="#0075BF" d="M37.422,42.612l-7.767,1.791c-3.15,0.49-5.975,0.924-8.962,0.924
	C5.703,45.327,0,34.302,0,25.666C0,15.129,8.093,5.353,21.943,5.353c2.933,0,5.758,0.436,8.31,1.141
	c4.073,1.141,5.975,2.553,7.169,3.369l-4.508,4.29l-1.9,0.435l1.357-2.173c-1.847-1.792-5.215-5.104-11.623-5.104
	c-8.583,0-15.046,6.518-15.046,16.023c0,10.21,7.388,19.824,19.227,19.824c3.477,0,5.269-0.705,6.898-1.357v-8.744l-8.201,0.434
	l4.345-2.335h11.515l-1.412,1.358c-0.38,0.324-0.435,0.434-0.544,0.867c-0.054,0.49-0.108,2.064-0.108,2.607V42.612L37.422,42.612z"
	/>
</svg>
