<?xml version="1.0" encoding="utf-8"?>
<!-- Generator: Adobe Illustrator 16.0.0, SVG Export Plug-In . SVG Version: 6.00 Build 0)  -->
<!DOCTYPE svg PUBLIC "-//W3C//DTD SVG 1.1//EN" "http://www.w3.org/Graphics/SVG/1.1/DTD/svg11.dtd">
<svg version="1.1" id="Layer_1" xmlns="http://www.w3.org/2000/svg" xmlns:xlink="http://www.w3.org/1999/xlink" x="0px" y="0px"
	 width="350px" height="350px" viewBox="0 0 350 350" enable-background="new 0 0 350 350" xml:space="preserve">
<path fill="#F05225" d="M0,0h166.5c-0.01,55.5,0,111-0.01,166.5c-55.49,0-110.99,0-166.49,0V0L0,0z"/>
<path fill="#80BB41" d="M183.5,0H350c0,55.5,0.01,111-0.01,166.5c-55.49-0.01-110.99,0-166.48,0C183.49,111,183.5,55.5,183.5,0
	L183.5,0z"/>
<path fill="#35A0DA" d="M0,183.49c55.5,0.02,111-0.01,166.5,0.02c0.01,55.5,0,110.99,0,166.49H0V183.49L0,183.49z"/>
<path fill="#FDB813" d="M183.51,183.51C239,183.49,294.5,183.5,350,183.5c0,55.5,0,111,0,166.5H183.5
	C183.51,294.5,183.49,239,183.51,183.51L183.51,183.51z"/>
</svg>
